<?xml version="1.0" standalone="no"?>
<!DOCTYPE svg PUBLIC "-//W3C//DTD SVG 20010904//EN"
 "http://www.w3.org/TR/2001/REC-SVG-20010904/DTD/svg10.dtd">
<svg version="1.0" xmlns="http://www.w3.org/2000/svg"
 width="1024" height="1024" viewBox="0 0 1024 1024"
 preserveAspectRatio="xMidYMid meet">

<!-- НОРМАЛЬНАЯ ВЕРСИЯ: Идеальная центровка, пропорциональный масштаб 0.15 (крупно, но с запасом 5% со всех сторон), чистый алый цвет. Ничего не режется, ничего не выступает. -->
<g transform="translate(512, 512) scale(0.15, -0.15) translate(-3200, -3200)"
   fill="#ff0000" stroke="none">
<path fill-rule="evenodd" d="M3341 4611 c276 -131 612 -253 919 -333 l125 -33 0 -535 c0 -520 -1
-538 -23 -640 -30 -136 -70 -254 -127 -377 -36 -77 -48 -95 -56 -83 -9 12 -10
12 -5 -4 10 -31 -103 -197 -202 -296 l-46 -45 45 55 c24 30 52 62 61 71 10 9
15 19 11 23 -3 3 -1 6 5 6 6 0 22 19 36 41 19 32 22 45 13 54 -10 11 -15 10
-29 -2 -10 -9 -18 -21 -18 -28 0 -7 -9 -20 -20 -30 -11 -10 -17 -22 -13 -28 4
-6 1 7 -7 -2 -10 6 -12 4 -7 -8 3 -9 3 -16 -1 -14 -4 1 -55 -46 -112 -104
-58 -58 -116 -114 -130 -125 -14 -10 20 26 76 81 169 169 303 365 381 561 35
88 78 250 88 329 3 28 8 65 11 83 l5 33 -122 -3 -122 -3 -23 -115 c-38 -189
-104 -349 -206 -496 -57 -84 -83 -110 -93 -95 -7 13 19 43 29 33 4 -3 4 2 0
11 -6 17 -8 16 -21 -3 -8 -11 -19 -17 -25 -14 -6 4 -8 2 -4 -4 3 -6 2 -13 -3
-16 -5 -4 -13 -2 -16 4 -9 14 14 42 28 33 5 -3 7 -2 4 4 -3 5 10 32 29 59 125
173 209 396 230 604 l7 70 153 0 154 0 0 410 0 411 -120 -92 -120 -92 0 -213
0 -214 -421 -2 -421 -3 -4 -55 c-2 -30 -1 -76 2 -102 l6 -48 289 0 c190 0 289
-3 289 -10 0 -6 -20 -45 -44 -88 -24 -42 -64 -115 -88 -162 l-45 -85 -204 -5
-204 -5 -5 -490 c-5 -423 -6 -452 -9 -215 -3 254 -4 270 -16 210 l-13 -65 -3
50 c-2 28 -6 -80 -9 -240 -5 -244 -6 -202 -8 265 l-2 555 207 -3 c115 -1 213
1 219 5 9 6 84 145 112 206 2 4 -119 7 -270 7 l-273 0 -1 175 -1 175 424 0
423 0 0 108 0 107 -545 -3 -545 -2 -2 -898 c-1 -493 -4 -799 -7 -680 -4 119
-10 220 -14 224 -4 4 -14 9 -22 10 -11 2 -12 -2 -6 -14 5 -10 5 -27 0 -40 -7
-19 -14 -22 -38 -19 -43 7 -46 -3 -10 -35 17 -16 29 -32 25 -35 -10 -10 -230
219 -285 297 -113 161 -197 371 -225 561 -12 80 -16 190 -16 442 l0 336 -115
86 c-63 47 -117 85 -121 85 -3 0 -4 -222 -1 -492 l4 -493 27 -114 c15 -63 41
-151 58 -195 68 -186 212 -409 362 -561 40 -41 70 -75 66 -75 -4 0 -13 7 -20
15 -7 8 -16 12 -21 9 -5 -3 -8 -2 -7 3 5 14 -124 153 -136 146 -6 -3 -8 -3 -4
2 8 8 -28 65 -40 65 -17 -1 -36 -20 -27 -27 6 -5 18 -19 26 -33 9 -14 38 -50
64 -80 40 -47 38 -45 -15 10 -57 59 -170 211 -200 269 -8 17 -9 26 -1 34 8 8
11 7 11 -3 0 -7 11 -28 26 -47 14 -18 22 -38 18 -45 -5 -8 -2 -9 10 -5 10 4
15 3 11 -3 -5 -9 20 -70 30 -70 2 0 3 9 2 20 -1 11 -5 20 -10 20 -5 0 -4 6 2
13 8 11 5 19 -13 36 -14 13 -22 29 -20 36 3 7 1 16 -5 20 -7 4 -8 -1 -4 -12 5
-16 4 -16 -10 -3 -9 8 -18 26 -21 40 -2 14 -9 36 -15 50 -11 25 -11 25 -6 -3
4 -19 2 -26 -5 -22 -5 3 -10 14 -11 23 0 11 -2 12 -6 4 -3 -7 0 -19 7 -26 6
-9 7 -17 1 -20 -16 -10 -107 193 -144 324 -49 173 -51 197 -55 761 l-3 535 78
18 c343 81 758 236 1109 415 1 1 66 -30 145 -68z m369 -2055 c0 -15 -14 -35
-21 -30 -15 9 -10 -13 6 -26 14 -12 19 -7 16 13 -1 5 3 6 9 2 5 -3 7 0 4 8 -6
17 22 31 32 16 9 -15 -101 -125 -219 -220 -54 -44 -101 -79 -105 -79 -7 0 -4
2 58 52 25 19 65 55 90 79 25 24 49 42 53 41 5 -1 5 2 2 8 -7 12 25 41 36 34
4 -2 12 3 20 12 10 12 9 18 -4 31 -17 18 -27 14 -31 -10 -1 -8 -8 -22 -16 -31
-10 -14 -15 -14 -23 -4 -6 10 -7 9 -4 -4 7 -20 -19 -46 -26 -26 -2 7 21 41 52
74 50 55 71 73 71 60z m365 -75 c3 -5 2 -12 -3 -15 -5 -3 -9 1 -9 9 0 17 3 19
12 6z m-495 -58 c0 -11 -72 -72 -92 -79 -10 -3 -18 -9 -18 -14 0 -5 -9 -12
-20 -15 -11 -4 -18 -11 -15 -16 4 -5 4 -9 1 -9 -3 0 -7 4 -10 9 -3 5 26 32 64
60 39 28 70 55 70 61 0 5 5 10 10 10 6 0 10 -3 10 -7z m-718 -185 c-3 -119
-12 -127 -12 -11 0 73 4 103 14 103 1 0 0 -41 -2 -92z m527 33 c-13 -11 -31
-23 -40 -26 -9 -3 -16 -16 -16 -30 l0 -25 46 27 c25 14 41 20 34 12 -6 -8 -30
-25 -52 -37 l-41 -23 0 33 c0 29 7 39 43 65 46 33 64 36 26 4z m-824 -92 l50
-53 -65 59 c-36 32 -67 61 -70 63 -3 3 4 0 15 -6 11 -6 43 -34 70 -63z m1293
11 c-34 -33 -67 -60 -71 -60 -4 0 8 14 28 31 19 17 32 36 28 42 -3 5 -2 7 4 4
6 -4 21 5 33 18 13 14 28 25 33 25 5 0 -20 -27 -55 -60z m-1202 -22 l29 -33
-35 30 c-19 17 -37 31 -39 33 -2 1 0 2 5 2 6 0 23 -15 40 -32z m168 -137 c-2
-2 -17 7 -33 20 -16 13 -46 35 -65 49 -20 14 -36 28 -36 32 0 5 31 -16 69 -45
38 -28 67 -54 65 -56z m866 85 c0 -3 -15 -14 -32 -26 l-33 -22 30 26 c31 27
35 29 35 22z m70 -10 c0 -2 -8 -10 -17 -17 -16 -13 -17 -12 -4 4 13 16 21 21
21 13z m-148 -48 c-6 -7 -25 -22 -44 -32 -39 -23 -32 -13 14 20 38 26 45 29
30 12z m-887 -8 c3 -5 1 -10 -4 -10 -6 0 -11 5 -11 10 0 6 2 10 4 10 3 0 8 -4
11 -10z m805 -44 c0 -2 -8 -10 -17 -17 -16 -13 -17 -12 -4 4 13 16 21 21 21
13z m90 -11 c-7 -8 -17 -15 -23 -15 -6 0 -2 7 9 15 25 19 30 19 14 0z m-41
-28 c-2 -2 -20 -14 -39 -26 l-35 -23 30 26 c17 14 34 26 39 26 5 0 7 -1 5 -3z
m-639 -73 c0 -2 -9 0 -20 6 -11 6 -20 13 -20 16 0 2 9 0 20 -6 11 -6 20 -13
20 -16z m61 -41 c13 -16 12 -17 -3 -4 -17 13 -22 21 -14 21 2 0 10 -8 17 -17z
M3060 4534 c-111 -53 -343 -147 -489 -198 -130 -45 -402 -126 -425
-126 -10 0 -16 -4 -14 -9 3 -8 180 -143 216 -165 27 -16 436 128 695 245 l116
53 3 123 c2 68 1 123 -2 123 -3 0 -48 -21 -100 -46z
M3238 4456 l3 -124 107 -47 c280 -124 669 -262 700 -250 18 7 221
158 221 165 1 3 -41 16 -91 29 -228 59 -578 186 -820 297 -64 30 -118 54 -120
54 -2 0 -2 -56 0 -124z
M3155 4258 c-100 -54 -397 -173 -572 -230 l-193 -63 0 -346 c0 -267
4 -367 15 -435 37 -213 111 -386 236 -550 45 -60 53 -84 29 -84 -5 0 -6 7 -3
17 4 11 3 14 -6 9 -7 -5 -10 -15 -6 -25 5 -12 3 -13 -5 -5 -9 9 -9 17 0 34 7
12 8 20 2 16 -14 -8 -35 20 -26 36 5 10 4 11 -7 1 -10 -10 -10 -16 -1 -25 16
-16 16 -31 0 -22 -7 4 -2 -7 11 -25 15 -20 29 -30 38 -27 11 4 13 2 9 -9 -3
-8 -1 -15 4 -15 6 0 10 -6 10 -13 0 -14 40 -56 44 -47 1 3 10 -2 19 -11 9 -9
14 -19 12 -21 -3 -2 9 -4 25 -4 23 0 27 2 18 13 -6 7 -13 11 -16 8 -3 -3 -21
9 -39 27 -19 18 -37 32 -41 30 -4 -1 -8 6 -8 15 -1 10 -5 26 -9 36 -12 29 0
20 76 -58 40 -41 76 -75 80 -75 3 0 9 9 12 20 3 11 1 18 -4 14 -5 -3 -9 289
-9 720 l0 726 580 0 580 0 0 38 0 38 -162 52 c-191 62 -389 139 -542 211 -60
28 -109 51 -110 51 -1 -1 -19 -11 -41 -22z
M2176 2747 c3 -10 9 -15 12 -12 3 3 0 11 -7 18 -10 9 -11 8 -5 -6z
M4194 2693 c2 -13 0 -23 -5 -23 -5 0 -9 5 -9 12 0 6 -2 9 -5 6 -7 -7
5 -38 15 -38 13 0 18 24 8 45 -8 18 -8 18 -4 -2z
M3814 2660 c0 -13 4 -16 10 -10 7 7 7 13 0 20 -6 6 -10 3 -10 -10z
M4150 2646 c0 -2 7 -7 16 -10 8 -3 12 -2 9 4 -6 10 -25 14 -25 6z
M4142 2590 c-7 -12 -17 -18 -23 -14 -7 4 -7 -1 0 -15 7 -11 14 -21
17 -21 3 0 2 5 -1 10 -3 6 1 17 9 26 9 8 16 20 16 25 0 14 -4 11 -18 -11z
M4106 2535 c4 -8 11 -15 16 -15 6 0 5 6 -2 15 -7 8 -14 15 -16 15 -2
0 -1 -7 2 -15z
M2334 2478 c1 -24 5 -34 14 -31 15 6 15 12 -2 42 -13 24 -14 24 -12
-11z
M2710 2500 c0 -5 4 -9 9 -7 5 1 23 -10 40 -26 17 -15 31 -24 31 -20
0 8 -65 63 -74 63 -4 0 -6 -4 -6 -10z
M3630 2470 c-9 -6 -10 -10 -3 -10 6 0 10 -3 10 -7z" />
</g>
</svg>
